<svg width="100%" height="100%" viewBox="0 0 20 20" fill="currentColor" xmlns="http://www.w3.org/2000/svg">
<g clip-path="url(#clip0_51_2)">
<path d="M9.9959 8.12725e-07C4.47497 0.00220594 0 4.47851 0 10C0 15.5228 4.47718 20 10 20C10.0035 20 10.0071 20 10.0107 20C10.507 19.9995 10.872 19.5296 10.7528 19.0479C10.6399 18.5914 10.5804 18.1138 10.5812 17.6223C10.5832 16.4945 10.9079 15.4382 11.4669 14.541L9.92272 12.9968C9.19492 12.9711 8.5142 12.6761 7.99641 12.1583C7.70036 11.8623 7.27431 11.2628 6.99415 9.48339C6.85323 8.58841 6.81569 7.80539 6.81415 7.77251L6.77236 6.87297L7.6719 6.91477C7.70482 6.91626 8.4878 6.95385 9.38277 7.09477C11.1622 7.37492 11.7616 7.80098 12.0577 8.09703C12.5772 8.61656 12.8711 9.3018 12.8961 10.0233L14.8521 11.9793C15.3529 11.8358 15.8804 11.7573 16.4249 11.7542C17.2679 11.7492 18.0701 11.9218 18.7962 12.2367C19.2566 12.4363 19.7809 12.1494 19.8634 11.6544C19.9542 11.1101 20.0011 10.551 19.9999 9.98072C19.9895 4.48318 15.4933 -0.00220432 9.9959 8.12725e-07ZM4.00236 13.6425C3.86133 13.6994 3.71569 13.7261 3.57262 13.7261C3.11518 13.7261 2.68236 13.4523 2.50133 13.0021C2.2639 12.4108 2.55056 11.7389 3.14236 11.501C3.73364 11.2635 4.40544 11.5507 4.64287 12.142C4.88031 12.7333 4.59364 13.4051 4.00236 13.6425ZM4.80903 7.48405C4.60903 7.89431 4.19826 8.13277 3.77108 8.13277C3.60133 8.13277 3.42903 8.09533 3.26646 8.01585C2.69364 7.73692 2.45518 7.0461 2.73467 6.47328C2.73467 6.47328 2.73467 6.47328 2.73415 6.47328C3.01364 5.90046 3.7039 5.66251 4.27723 5.94149C4.85005 6.22051 5.088 6.91128 4.80903 7.48405ZM7.57774 15.3323C7.88185 15.3323 8.17877 15.4554 8.39364 15.6703C8.60851 15.8847 8.73159 16.1821 8.73159 16.4862C8.73159 16.7897 8.60851 17.0872 8.39364 17.3021C8.17877 17.5164 7.88185 17.6395 7.57774 17.6395C7.27415 17.6395 6.97672 17.5164 6.76185 17.3021C6.54697 17.0872 6.4239 16.7897 6.4239 16.4862C6.4239 16.1821 6.54697 15.8847 6.76185 15.6703C6.97672 15.4554 7.27415 15.3323 7.57774 15.3323ZM8.36903 4.46508C8.25979 4.49739 8.15005 4.51282 8.04133 4.51282C7.54338 4.51282 7.0839 4.18764 6.93569 3.68564C6.75518 3.07431 7.1039 2.43277 7.71518 2.25231C8.32646 2.07174 8.968 2.42103 9.14851 3.0318C9.32903 3.64308 8.98031 4.28462 8.36903 4.46508ZM14.5736 4.68969C14.3557 5.04513 13.9767 5.24098 13.5885 5.24098C13.3829 5.24098 13.1747 5.18564 12.987 5.07077C12.4434 4.73744 12.2731 4.02713 12.6059 3.4841C12.9388 2.94051 13.649 2.77026 14.1926 3.10308C14.7362 3.4359 14.9065 4.14615 14.5736 4.68969ZM17.6131 9.49898C17.3983 9.71385 17.1008 9.83692 16.7972 9.83692C16.4936 9.83692 16.1962 9.7139 15.9813 9.49898C15.7665 9.28462 15.6434 8.98723 15.6434 8.68308C15.6434 8.37949 15.7665 8.08205 15.9813 7.86718C16.1962 7.65282 16.4936 7.52923 16.7972 7.52923C17.1008 7.52923 17.3983 7.65282 17.6131 7.86718C17.828 8.08205 17.9511 8.37949 17.9511 8.68308C17.9511 8.98718 17.828 9.2841 17.6131 9.49898Z" fill="currentColor"/>
<path d="M12.7503 11.0376C12.6097 11.4572 12.3731 11.8428 12.0577 12.1582C11.7424 12.4735 11.3568 12.7101 10.9371 12.8507L16.5097 18.4232C17.0054 18.9189 17.809 18.9189 18.3047 18.4232L18.3228 18.405C18.8185 17.9093 18.8185 17.1058 18.3228 16.6101L12.7503 11.0376Z" fill="currentColor"/>
<path d="M11.4775 8.6772C10.6761 7.87581 7.63379 7.73438 7.63379 7.73438C7.63379 7.73438 7.77522 10.7767 8.57661 11.5781C9.03461 12.0361 9.65507 12.2323 10.2526 12.1663C10.7001 12.1169 11.1345 11.9211 11.4775 11.5781C11.8206 11.2351 12.0164 10.8007 12.0657 10.3532C12.1317 9.75566 11.9355 9.1352 11.4775 8.6772Z" fill="currentColor"/>
</g>
<defs>
<clipPath id="clip0_51_2">
<rect width="20" height="20" fill="white"/>
</clipPath>
</defs>
</svg>
