<svg xmlns="http://www.w3.org/2000/svg" xmlns:xlink="http://www.w3.org/1999/xlink" 
width="100%" height="100%" viewBox="0 0 24 24" version="1.1" stroke="currentColor" stroke-width="1" fill="none" >
<g id="surface1">
<path style="stroke:none;fill-rule:nonzero;fill:currentColor;fill-opacity:1;" d="M 6.125 19.679688 C 6.269531 19.679688 6.414062 19.667969 6.554688 19.636719 C 7.148438 19.523438 7.660156 19.183594 8 18.683594 C 8.335938 18.183594 8.460938 17.582031 8.34375 16.988281 C 8.28125 16.675781 8.15625 16.386719 7.984375 16.136719 L 10.386719 13.367188 C 10.726562 13.570312 11.125 13.6875 11.546875 13.6875 C 11.691406 13.6875 11.835938 13.671875 11.976562 13.644531 C 12.570312 13.53125 13.082031 13.191406 13.421875 12.691406 C 13.703125 12.273438 13.832031 11.789062 13.804688 11.296875 L 17.460938 9.820312 C 17.875 10.234375 18.441406 10.484375 19.054688 10.484375 C 19.199219 10.484375 19.34375 10.46875 19.488281 10.441406 C 20.710938 10.203125 21.511719 9.015625 21.273438 7.792969 C 21.195312 7.386719 21.011719 7.027344 20.753906 6.734375 L 22.410156 3.0625 L 22.863281 4.078125 C 22.960938 4.296875 23.179688 4.429688 23.40625 4.429688 C 23.488281 4.429688 23.570312 4.410156 23.648438 4.375 C 23.949219 4.242188 24.082031 3.890625 23.949219 3.589844 L 22.886719 1.222656 C 22.824219 1.078125 22.703125 0.964844 22.554688 0.910156 C 22.410156 0.851562 22.246094 0.859375 22.101562 0.921875 L 19.734375 1.984375 C 19.433594 2.117188 19.296875 2.46875 19.433594 2.769531 C 19.566406 3.070312 19.917969 3.203125 20.21875 3.070312 L 21.324219 2.574219 L 19.75 6.070312 C 19.53125 6 19.296875 5.960938 19.058594 5.960938 C 18.914062 5.960938 18.769531 5.976562 18.625 6.003906 C 17.402344 6.242188 16.601562 7.429688 16.835938 8.652344 C 16.847656 8.695312 16.855469 8.738281 16.867188 8.777344 L 13.421875 10.164062 C 13.011719 9.558594 12.316406 9.167969 11.550781 9.167969 C 11.40625 9.167969 11.257812 9.179688 11.117188 9.207031 C 9.894531 9.445312 9.089844 10.632812 9.328125 11.859375 C 9.371094 12.089844 9.453125 12.304688 9.558594 12.503906 L 7.074219 15.367188 C 6.785156 15.234375 6.464844 15.160156 6.128906 15.160156 C 5.984375 15.160156 5.835938 15.171875 5.695312 15.199219 C 5.101562 15.316406 4.589844 15.65625 4.25 16.15625 C 3.914062 16.65625 3.792969 17.257812 3.90625 17.851562 C 4.113281 18.910156 5.046875 19.679688 6.125 19.679688 Z M 18.851562 7.171875 C 18.921875 7.15625 18.988281 7.152344 19.058594 7.152344 C 19.570312 7.152344 20.007812 7.515625 20.105469 8.019531 C 20.21875 8.597656 19.839844 9.160156 19.261719 9.273438 C 19.191406 9.285156 19.125 9.292969 19.054688 9.292969 C 18.542969 9.292969 18.101562 8.929688 18.007812 8.425781 C 17.894531 7.847656 18.273438 7.285156 18.851562 7.171875 Z M 11.34375 10.375 C 11.410156 10.363281 11.480469 10.355469 11.550781 10.355469 C 12.058594 10.355469 12.5 10.722656 12.597656 11.222656 C 12.652344 11.503906 12.59375 11.789062 12.433594 12.027344 C 12.273438 12.261719 12.03125 12.421875 11.75 12.476562 C 11.683594 12.492188 11.613281 12.496094 11.546875 12.496094 C 11.035156 12.496094 10.59375 12.132812 10.496094 11.632812 C 10.382812 11.050781 10.765625 10.488281 11.34375 10.375 Z M 5.238281 16.820312 C 5.398438 16.585938 5.640625 16.421875 5.921875 16.367188 C 5.988281 16.355469 6.058594 16.347656 6.128906 16.347656 C 6.636719 16.347656 7.078125 16.714844 7.175781 17.214844 C 7.230469 17.496094 7.171875 17.78125 7.011719 18.019531 C 6.851562 18.253906 6.609375 18.414062 6.328125 18.46875 C 6.261719 18.484375 6.191406 18.492188 6.125 18.492188 C 5.613281 18.492188 5.171875 18.125 5.074219 17.625 C 5.019531 17.34375 5.078125 17.058594 5.238281 16.820312 Z M 5.238281 16.820312 "/>
<path style="stroke:none;fill-rule:nonzero;fill:currentColor;fill-opacity:1;" d="M 23.367188 20.894531 L 2.46875 20.894531 L 2.46875 2.472656 C 2.46875 2.144531 2.203125 1.875 1.871094 1.875 C 1.542969 1.875 1.277344 2.144531 1.277344 2.472656 L 1.277344 20.894531 L 0.59375 20.894531 C 0.265625 20.894531 0 21.160156 0 21.488281 C 0 21.816406 0.265625 22.085938 0.59375 22.085938 L 1.277344 22.085938 L 1.277344 22.535156 C 1.277344 22.863281 1.542969 23.128906 1.871094 23.128906 C 2.203125 23.128906 2.46875 22.863281 2.46875 22.535156 L 2.46875 22.085938 L 23.367188 22.085938 C 23.695312 22.085938 23.960938 21.816406 23.960938 21.488281 C 23.960938 21.160156 23.695312 20.894531 23.367188 20.894531 Z M 23.367188 20.894531 "/>
</g>
</svg>
