<svg  viewBox="0 0 20 20" fill="currentColor" xmlns="http://www.w3.org/2000/svg">
<path d="M11.8566 10.0278C11.4516 9.90953 11.0272 10.1415 10.9086 10.5465C10.6227 11.5236 9.82716 12.2616 8.83246 12.4727C7.34491 12.7887 5.87754 11.8349 5.56187 10.3472C5.24619 8.85941 6.19968 7.39219 7.68743 7.07651C8.10025 6.98895 8.36386 6.58326 8.2763 6.1705C8.18868 5.75768 7.78305 5.49381 7.37023 5.58163C5.05822 6.07223 3.57638 8.35235 4.06699 10.6643C4.49422 12.6777 6.27828 14.0614 8.25898 14.0614C8.55275 14.0614 8.8511 14.0309 9.14971 13.9675C10.6952 13.6396 11.9312 12.4932 12.3753 10.9757C12.4939 10.5707 12.2616 10.1463 11.8566 10.0278Z" fill="currentColor"/>
<path d="M10.0928 6.39973C8.62228 6.99893 7.60348 8.35266 7.43401 9.93266C7.38903 10.3522 7.69268 10.7288 8.11222 10.7739C8.53186 10.8189 8.90846 10.5153 8.95349 10.0957C9.06291 9.0756 9.72044 8.20162 10.6694 7.81504C12.0889 7.23667 13.7141 7.92094 14.2924 9.34033C14.5726 10.0279 14.5682 10.7835 14.2801 11.4678C13.9921 12.1521 13.4547 12.6832 12.7672 12.9633C12.3763 13.1226 12.1886 13.5685 12.3479 13.9593C12.4686 14.2557 12.7543 14.4353 13.0557 14.4353C13.1517 14.4353 13.2494 14.4171 13.3437 14.3786C14.4093 13.9445 15.2421 13.1212 15.6886 12.0608C16.1351 11.0003 16.1418 9.8293 15.7077 8.76369C14.8114 6.5639 12.2926 5.50369 10.0928 6.39973Z" fill="currentColor"/>
<path d="M15.8282 0.0473232H4.17177C1.87143 0.0473232 0 1.91875 0 4.21909V15.7809C0 18.0812 1.87143 19.9527 4.17177 19.9527H15.8282C18.1286 19.9527 20 18.0813 20 15.7809V4.21909C20 1.91875 18.1285 0.0473232 15.8282 0.0473232ZM18.4718 15.7809C18.4718 17.2386 17.2859 18.4245 15.8282 18.4245H4.17177C2.71407 18.4245 1.5282 17.2386 1.5282 15.7809V4.21909C1.5282 2.7614 2.71407 1.57552 4.17177 1.57552H15.8282C17.2859 1.57552 18.4718 2.7614 18.4718 4.21909V15.7809Z" fill="currentColor"/>
</svg>
