<svg width="100%" height="100%" viewBox="0 0 20 20"  fill="currentColor" xmlns="http://www.w3.org/2000/svg">
<path d="M4.01961 14.5263H1.44081C0.64507 14.5263 0 15.173 0 15.9706V18.5557C0 19.3534 0.64507 20 1.44081 20H4.01961C4.81535 20 5.46042 19.3534 5.46042 18.5557V15.9706C5.46042 15.173 4.81535 14.5263 4.01961 14.5263Z" fill="currentColor"/>
<path d="M18.3653 0.178131H15.7865C14.9908 0.178131 14.3457 0.824783 14.3457 1.62247V4.20752C14.3457 5.0052 14.9908 5.65181 15.7865 5.65181H18.3653C19.1611 5.65181 19.8062 5.0052 19.8062 4.20752V1.62247C19.8062 0.824783 19.1611 0.178131 18.3653 0.178131Z" fill="currentColor"/>
<path d="M4.02377 0H1.44498C0.649236 0 0.00416565 0.646652 0.00416565 1.44434V4.02939C0.00416565 4.82707 0.649236 5.47368 1.44498 5.47368H4.02377C4.81951 5.47368 5.46459 4.82707 5.46459 4.02939V1.44434C5.46459 0.646652 4.81951 0 4.02377 0Z" fill="currentColor"/>
<path d="M18.3049 14.3158H15.7261C14.9303 14.3158 14.2853 14.9624 14.2853 15.7601V18.3452C14.2853 19.1429 14.9303 19.7895 15.7261 19.7895H18.3049C19.1006 19.7895 19.7457 19.1429 19.7457 18.3452V15.7601C19.7457 14.9624 19.1006 14.3158 18.3049 14.3158Z" fill="currentColor"/>
<path d="M12.6052 9.89474C12.6052 11.4063 11.3828 12.6316 9.87495 12.6316C8.3671 12.6316 7.14474 11.4063 7.14474 9.89474C7.14474 8.38322 8.3671 7.1579 9.87495 7.1579C11.3828 7.1579 12.6052 8.38322 12.6052 9.89474Z" fill="currentColor"/>
<path d="M11.5396 14.3722H9.28452C8.34663 14.3226 7.45406 13.952 6.7558 13.3223L6.66146 13.2372C6.03129 12.5311 5.66166 11.6297 5.61411 10.6834V8.41342C5.60945 8.03094 5.45773 7.665 5.19055 7.39186C4.92337 7.11877 4.56134 6.95953 4.17991 6.94736H1.48137C1.08847 6.94736 0.711702 7.10382 0.433892 7.3823C0.156083 7.66079 0 8.03847 0 8.43232V11.0901C0 11.484 0.156083 11.8617 0.433892 12.1402C0.711702 12.4187 1.08847 12.5751 1.48137 12.5751H3.74589C4.68294 12.6285 5.57433 12.9986 6.27461 13.625L6.35954 13.7196C6.9877 14.4195 7.35737 15.3143 7.40685 16.2544V18.515C7.40685 18.7108 7.44549 18.9047 7.52051 19.0854C7.59557 19.2662 7.70553 19.4303 7.8441 19.5684C7.98263 19.7064 8.14707 19.8156 8.3279 19.8896C8.50872 19.9637 8.70236 20.0012 8.89767 19.9999H11.5396C11.9325 19.9999 12.3093 19.8435 12.5871 19.565C12.8649 19.2866 13.021 18.9088 13.021 18.515V15.8572C13.021 15.4634 12.8649 15.0856 12.5871 14.8071C12.3093 14.5287 11.9325 14.3722 11.5396 14.3722Z" fill="currentColor"/>
<path d="M18.5186 7.60297H16.2635C15.3256 7.55333 14.433 7.1828 13.7348 6.55312L13.6404 6.46798C13.0103 5.76184 12.6406 4.86049 12.5931 3.91421V1.64419C12.5884 1.26171 12.4367 0.895772 12.1695 0.622636C11.9024 0.349541 11.5403 0.1903 11.1589 0.178131H8.46036C8.06746 0.178131 7.69069 0.334595 7.41288 0.613079C7.13507 0.891563 6.97899 1.26925 6.97899 1.6631V4.32091C6.97899 4.71476 7.13507 5.09245 7.41288 5.37097C7.69069 5.64946 8.06746 5.80588 8.46036 5.80588H10.7249C11.6619 5.85927 12.5533 6.22933 13.2536 6.85577L13.3385 6.95034C13.9667 7.6503 14.3364 8.54504 14.3858 9.4852V11.7457C14.3858 11.9416 14.4245 12.1354 14.4995 12.3162C14.5746 12.497 14.6845 12.6611 14.8231 12.7991C14.9616 12.9372 15.1261 13.0463 15.3069 13.1204C15.4877 13.1945 15.6813 13.232 15.8767 13.2307H18.5186C18.9115 13.2307 19.2883 13.0743 19.5661 12.7958C19.8439 12.5173 20 12.1396 20 11.7457V9.08794C20 8.69413 19.8439 8.3164 19.5661 8.03792C19.2883 7.75943 18.9115 7.60297 18.5186 7.60297Z" fill="currentColor"/>
</svg>
