<?xml version="1.0" encoding="UTF-8"?>
<svg xmlns="http://www.w3.org/2000/svg" xmlns:xlink="http://www.w3.org/1999/xlink"  height="100%" width="100%" fill="none" viewBox="0 0 24 24" stroke="currentColor" stroke-width="1">
<g id="surface1">
<path style="stroke:none;fill-rule:nonzero;fill:currentColor;fill-opacity:1;" d="M 23.125 11.125 L 22.074219 11.125 C 21.65625 6.238281 17.761719 2.34375 12.875 1.925781 L 12.875 0.875 C 12.875 0.390625 12.484375 0 12 0 C 11.515625 0 11.125 0.390625 11.125 0.875 L 11.125 1.925781 C 6.238281 2.34375 2.34375 6.238281 1.925781 11.125 L 0.875 11.125 C 0.390625 11.125 0 11.515625 0 12 C 0 12.484375 0.390625 12.875 0.875 12.875 L 1.925781 12.875 C 2.34375 17.761719 6.238281 21.65625 11.125 22.074219 L 11.125 23.125 C 11.125 23.609375 11.515625 24 12 24 C 12.484375 24 12.875 23.609375 12.875 23.125 L 12.875 22.074219 C 17.761719 21.65625 21.65625 17.761719 22.074219 12.875 L 23.125 12.875 C 23.609375 12.875 24 12.484375 24 12 C 24 11.515625 23.601562 11.125 23.125 11.125 Z M 19.328125 12.875 L 20.378906 12.875 C 19.96875 16.828125 16.828125 19.96875 12.875 20.378906 L 12.875 19.328125 C 12.875 18.84375 12.484375 18.453125 12 18.453125 C 11.515625 18.453125 11.125 18.84375 11.125 19.328125 L 11.125 20.378906 C 7.171875 19.96875 4.03125 16.828125 3.621094 12.875 L 4.671875 12.875 C 5.15625 12.875 5.546875 12.484375 5.546875 12 C 5.546875 11.515625 5.15625 11.125 4.671875 11.125 L 3.621094 11.125 C 4.03125 7.171875 7.171875 4.03125 11.125 3.621094 L 11.125 4.671875 C 11.125 5.15625 11.515625 5.546875 12 5.546875 C 12.484375 5.546875 12.875 5.15625 12.875 4.671875 L 12.875 3.621094 C 16.828125 4.03125 19.96875 7.171875 20.378906 11.125 L 19.328125 11.125 C 18.84375 11.125 18.453125 11.515625 18.453125 12 C 18.453125 12.484375 18.84375 12.875 19.328125 12.875 Z M 19.328125 12.875 "/>
<path style="stroke:none;fill-rule:nonzero;fill:currentColor;fill-opacity:1;" d="M 12 6.980469 C 9.230469 6.980469 6.980469 9.230469 6.980469 12 C 6.980469 14.769531 9.230469 17.019531 12 17.019531 C 14.769531 17.019531 17.019531 14.769531 17.019531 12 C 17.019531 9.230469 14.769531 6.980469 12 6.980469 Z M 13.4375 13.976562 C 13.21875 14.242188 12.933594 14.421875 12.601562 14.515625 C 12.457031 14.554688 12.390625 14.632812 12.398438 14.78125 C 12.402344 14.929688 12.398438 15.078125 12.398438 15.226562 C 12.398438 15.359375 12.328125 15.425781 12.199219 15.433594 C 12.039062 15.4375 11.882812 15.4375 11.722656 15.433594 C 11.578125 15.425781 11.515625 15.347656 11.515625 15.210938 C 11.515625 15.105469 11.515625 14.996094 11.511719 14.886719 C 11.511719 14.648438 11.5 14.640625 11.269531 14.605469 C 10.976562 14.554688 10.6875 14.492188 10.417969 14.359375 C 10.207031 14.257812 10.183594 14.203125 10.246094 13.984375 C 10.292969 13.816406 10.335938 13.65625 10.390625 13.488281 C 10.449219 13.296875 10.5 13.273438 10.671875 13.367188 C 10.972656 13.523438 11.285156 13.605469 11.617188 13.648438 C 11.832031 13.675781 12.039062 13.65625 12.238281 13.566406 C 12.605469 13.40625 12.664062 12.980469 12.351562 12.71875 C 12.246094 12.632812 12.128906 12.566406 12 12.515625 C 11.675781 12.371094 11.339844 12.265625 11.035156 12.078125 C 10.539062 11.78125 10.226562 11.375 10.261719 10.769531 C 10.300781 10.089844 10.6875 9.664062 11.316406 9.433594 C 11.574219 9.339844 11.574219 9.347656 11.574219 9.078125 C 11.574219 8.984375 11.574219 8.894531 11.574219 8.804688 C 11.578125 8.597656 11.613281 8.5625 11.8125 8.558594 C 11.878906 8.558594 11.941406 8.558594 12 8.558594 C 12.429688 8.558594 12.429688 8.558594 12.429688 8.988281 C 12.429688 9.292969 12.429688 9.296875 12.734375 9.339844 C 12.964844 9.375 13.191406 9.445312 13.40625 9.542969 C 13.523438 9.597656 13.566406 9.679688 13.53125 9.800781 C 13.480469 9.988281 13.429688 10.171875 13.367188 10.359375 C 13.308594 10.535156 13.253906 10.5625 13.085938 10.476562 C 12.75 10.316406 12.398438 10.246094 12.023438 10.265625 C 11.925781 10.273438 11.832031 10.285156 11.742188 10.324219 C 11.417969 10.46875 11.367188 10.820312 11.644531 11.039062 C 11.78125 11.152344 11.941406 11.230469 12.101562 11.300781 C 12.386719 11.417969 12.675781 11.53125 12.945312 11.683594 C 13.816406 12.160156 14.046875 13.242188 13.4375 13.976562 Z M 13.4375 13.976562 "/>
</g>
</svg>
